<mxfile host="app.diagrams.net" modified="2023-12-31T08:16:13.869Z" agent="Mozilla/5.0 (Macintosh; Intel Mac OS X 10_15_7) AppleWebKit/537.36 (KHTML, like Gecko) Chrome/119.0.0.0 Safari/537.36" version="22.1.16" etag="Sz8h0oQ7bQgvFsULBWlv" type="github">
  <diagram name="페이지-1" id="ym8eyg9qezaj4_QFfLwJ">
    <mxGraphModel>
      <root>
        <mxCell id="0" />
        <mxCell id="1" parent="0" />
      </root>
    </mxGraphModel>
  </diagram>
</mxfile>
